# MagicaVoxel @ Ephtracy

# group
o 

# material
mtllib Normal_4way.mtl
usemtl palette

# normals
vn -1 0 0
vn 1 0 0
vn 0 0 1
vn 0 0 -1
vn 0 -1 0
vn 0 1 0

# texcoords
vt 0.958984 0.5
vt 0.994141 0.5

# verts
v 0 2 0
v 0 2 -4
v 0 2.3 0
v 0 2.3 -1.6
v 0 2.3 -2.4
v 0 2.3 -4
v 0 2.9 -1.6
v 0 2.9 -2.4
v 1.6 2.3 0
v 1.6 2.3 -1.6
v 1.6 2.3 -2.4
v 1.6 2.3 -4
v 1.6 2.9 0
v 1.6 2.9 -1.6
v 1.6 2.9 -2.4
v 1.6 2.9 -4
v 2.4 2.3 0
v 2.4 2.3 -1.6
v 2.4 2.3 -2.4
v 2.4 2.3 -4
v 2.4 2.9 0
v 2.4 2.9 -1.6
v 2.4 2.9 -2.4
v 2.4 2.9 -4
v 4 2 0
v 4 2 -4
v 4 2.3 0
v 4 2.3 -1.6
v 4 2.3 -2.4
v 4 2.3 -4
v 4 2.9 -1.6
v 4 2.9 -2.4
v 0 2 0
v 0 2.3 0
v 1.6 2.3 0
v 1.6 2.9 0
v 2.4 2.3 0
v 2.4 2.9 0
v 4 2 0
v 4 2.3 0
v 0 2.3 -1.6
v 0 2.9 -1.6
v 1.6 2.3 -1.6
v 1.6 2.9 -1.6
v 2.4 2.3 -1.6
v 2.4 2.9 -1.6
v 4 2.3 -1.6
v 4 2.9 -1.6
v 0 2.3 -2.4
v 0 2.9 -2.4
v 1.6 2.3 -2.4
v 1.6 2.9 -2.4
v 2.4 2.3 -2.4
v 2.4 2.9 -2.4
v 4 2.3 -2.4
v 4 2.9 -2.4
v 0 2 -4
v 0 2.3 -4
v 1.6 2.3 -4
v 1.6 2.9 -4
v 2.4 2.3 -4
v 2.4 2.9 -4
v 4 2 -4
v 4 2.3 -4
v 0 2 0
v 4 2 0
v 0 2 -4
v 4 2 -4
v 0 2.3 0
v 1.6 2.3 0
v 2.4 2.3 0
v 4 2.3 0
v 0.1 2.3 -0.1
v 1.5 2.3 -0.1
v 2.5 2.3 -0.1
v 3.9 2.3 -0.1
v 0.2 2.3 -0.2
v 1.4 2.3 -0.2
v 2.6 2.3 -0.2
v 3.8 2.3 -0.2
v 0.2 2.3 -1.4
v 1.4 2.3 -1.4
v 2.6 2.3 -1.4
v 3.8 2.3 -1.4
v 0.1 2.3 -1.5
v 1.5 2.3 -1.5
v 2.5 2.3 -1.5
v 3.9 2.3 -1.5
v 0 2.3 -1.6
v 1.6 2.3 -1.6
v 2.4 2.3 -1.6
v 4 2.3 -1.6
v 0 2.3 -2.4
v 1.6 2.3 -2.4
v 2.4 2.3 -2.4
v 4 2.3 -2.4
v 0.1 2.3 -2.5
v 1.5 2.3 -2.5
v 2.5 2.3 -2.5
v 3.9 2.3 -2.5
v 0.2 2.3 -2.6
v 1.4 2.3 -2.6
v 2.6 2.3 -2.6
v 3.8 2.3 -2.6
v 0.2 2.3 -3.8
v 1.4 2.3 -3.8
v 2.6 2.3 -3.8
v 3.8 2.3 -3.8
v 0.1 2.3 -3.9
v 1.5 2.3 -3.9
v 2.5 2.3 -3.9
v 3.9 2.3 -3.9
v 0 2.3 -4
v 1.6 2.3 -4
v 2.4 2.3 -4
v 4 2.3 -4
v 1.6 2.9 0
v 2.4 2.9 0
v 1.7 2.9 -0.1
v 2.3 2.9 -0.1
v 1.8 2.9 -0.2
v 2.2 2.9 -0.2
v 0 2.9 -1.6
v 1.6 2.9 -1.6
v 2.4 2.9 -1.6
v 4 2.9 -1.6
v 0.1 2.9 -1.7
v 1.7 2.9 -1.7
v 2.3 2.9 -1.7
v 3.9 2.9 -1.7
v 0.2 2.9 -1.8
v 1.8 2.9 -1.8
v 2.2 2.9 -1.8
v 3.8 2.9 -1.8
v 0.2 2.9 -2.2
v 1.8 2.9 -2.2
v 2.2 2.9 -2.2
v 3.8 2.9 -2.2
v 0.1 2.9 -2.3
v 1.7 2.9 -2.3
v 2.3 2.9 -2.3
v 3.9 2.9 -2.3
v 0 2.9 -2.4
v 1.6 2.9 -2.4
v 2.4 2.9 -2.4
v 4 2.9 -2.4
v 1.8 2.9 -3.8
v 2.2 2.9 -3.8
v 1.7 2.9 -3.9
v 2.3 2.9 -3.9
v 1.6 2.9 -4
v 2.4 2.9 -4

# faces
f 3/2/1 2/2/1 1/2/1
f 4/2/1 2/2/1 3/2/1
f 5/2/1 2/2/1 4/2/1
f 6/2/1 2/2/1 5/2/1
f 7/1/1 5/1/1 4/1/1
f 8/1/1 5/1/1 7/1/1
f 13/1/1 10/1/1 9/1/1
f 14/1/1 10/1/1 13/1/1
f 15/1/1 12/1/1 11/1/1
f 16/1/1 12/1/1 15/1/1
f 17/1/2 18/1/2 21/1/2
f 21/1/2 18/1/2 22/1/2
f 19/1/2 20/1/2 23/1/2
f 23/1/2 20/1/2 24/1/2
f 25/2/2 26/2/2 27/2/2
f 27/2/2 26/2/2 28/2/2
f 28/2/2 26/2/2 29/2/2
f 29/2/2 26/2/2 30/2/2
f 28/1/2 29/1/2 31/1/2
f 31/1/2 29/1/2 32/1/2
f 35/2/3 34/2/3 33/2/3
f 37/2/3 35/2/3 33/2/3
f 37/1/3 36/1/3 35/1/3
f 38/1/3 36/1/3 37/1/3
f 39/2/3 37/2/3 33/2/3
f 40/2/3 37/2/3 39/2/3
f 43/1/3 42/1/3 41/1/3
f 44/1/3 42/1/3 43/1/3
f 47/1/3 46/1/3 45/1/3
f 48/1/3 46/1/3 47/1/3
f 49/1/4 50/1/4 51/1/4
f 51/1/4 50/1/4 52/1/4
f 53/1/4 54/1/4 55/1/4
f 55/1/4 54/1/4 56/1/4
f 57/2/4 58/2/4 59/2/4
f 57/2/4 59/2/4 61/2/4
f 59/1/4 60/1/4 61/1/4
f 61/1/4 60/1/4 62/1/4
f 57/2/4 61/2/4 63/2/4
f 63/2/4 61/2/4 64/2/4
f 67/2/5 66/2/5 65/2/5
f 68/2/5 66/2/5 67/2/5
f 69/2/6 70/2/6 73/2/6
f 73/2/6 70/2/6 74/2/6
f 71/2/6 72/2/6 75/2/6
f 75/2/6 72/2/6 76/2/6
f 73/1/6 74/1/6 77/1/6
f 77/1/6 74/1/6 78/1/6
f 75/1/6 76/1/6 79/1/6
f 79/1/6 76/1/6 80/1/6
f 73/1/6 77/1/6 81/1/6
f 77/2/6 78/2/6 81/2/6
f 78/1/6 74/1/6 82/1/6
f 81/2/6 78/2/6 82/2/6
f 79/2/6 80/2/6 83/2/6
f 75/1/6 79/1/6 83/1/6
f 80/1/6 76/1/6 84/1/6
f 83/2/6 80/2/6 84/2/6
f 69/2/6 73/2/6 85/2/6
f 73/1/6 81/1/6 85/1/6
f 81/1/6 82/1/6 85/1/6
f 74/2/6 70/2/6 86/2/6
f 85/1/6 82/1/6 86/1/6
f 82/1/6 74/1/6 86/1/6
f 71/2/6 75/2/6 87/2/6
f 83/1/6 84/1/6 87/1/6
f 75/1/6 83/1/6 87/1/6
f 84/1/6 76/1/6 88/1/6
f 87/1/6 84/1/6 88/1/6
f 76/2/6 72/2/6 88/2/6
f 69/2/6 85/2/6 89/2/6
f 85/2/6 86/2/6 89/2/6
f 86/2/6 70/2/6 90/2/6
f 89/2/6 86/2/6 90/2/6
f 71/2/6 87/2/6 91/2/6
f 87/2/6 88/2/6 91/2/6
f 88/2/6 72/2/6 92/2/6
f 91/2/6 88/2/6 92/2/6
f 93/2/6 94/2/6 97/2/6
f 97/2/6 94/2/6 98/2/6
f 95/2/6 96/2/6 99/2/6
f 99/2/6 96/2/6 100/2/6
f 97/1/6 98/1/6 101/1/6
f 101/1/6 98/1/6 102/1/6
f 99/1/6 100/1/6 103/1/6
f 103/1/6 100/1/6 104/1/6
f 97/1/6 101/1/6 105/1/6
f 101/2/6 102/2/6 105/2/6
f 102/1/6 98/1/6 106/1/6
f 105/2/6 102/2/6 106/2/6
f 103/2/6 104/2/6 107/2/6
f 99/1/6 103/1/6 107/1/6
f 104/1/6 100/1/6 108/1/6
f 107/2/6 104/2/6 108/2/6
f 93/2/6 97/2/6 109/2/6
f 97/1/6 105/1/6 109/1/6
f 105/1/6 106/1/6 109/1/6
f 98/2/6 94/2/6 110/2/6
f 109/1/6 106/1/6 110/1/6
f 106/1/6 98/1/6 110/1/6
f 95/2/6 99/2/6 111/2/6
f 107/1/6 108/1/6 111/1/6
f 99/1/6 107/1/6 111/1/6
f 108/1/6 100/1/6 112/1/6
f 111/1/6 108/1/6 112/1/6
f 100/2/6 96/2/6 112/2/6
f 93/2/6 109/2/6 113/2/6
f 109/2/6 110/2/6 113/2/6
f 110/2/6 94/2/6 114/2/6
f 113/2/6 110/2/6 114/2/6
f 95/2/6 111/2/6 115/2/6
f 111/2/6 112/2/6 115/2/6
f 112/2/6 96/2/6 116/2/6
f 115/2/6 112/2/6 116/2/6
f 117/1/6 118/1/6 119/1/6
f 119/1/6 118/1/6 120/1/6
f 119/2/6 120/2/6 121/2/6
f 121/2/6 120/2/6 122/2/6
f 117/1/6 119/1/6 124/1/6
f 120/1/6 118/1/6 125/1/6
f 123/1/6 124/1/6 127/1/6
f 119/2/6 121/2/6 128/2/6
f 127/1/6 124/1/6 128/1/6
f 124/1/6 119/1/6 128/1/6
f 122/2/6 120/2/6 129/2/6
f 125/1/6 126/1/6 129/1/6
f 120/1/6 125/1/6 129/1/6
f 129/1/6 126/1/6 130/1/6
f 127/2/6 128/2/6 131/2/6
f 128/2/6 121/2/6 132/2/6
f 131/2/6 128/2/6 132/2/6
f 121/1/6 122/1/6 132/1/6
f 129/2/6 130/2/6 133/2/6
f 132/1/6 122/1/6 133/1/6
f 122/2/6 129/2/6 133/2/6
f 133/2/6 130/2/6 134/2/6
f 127/2/6 131/2/6 135/2/6
f 131/1/6 132/1/6 135/1/6
f 133/1/6 134/1/6 135/1/6
f 132/1/6 133/1/6 135/1/6
f 135/1/6 134/1/6 136/1/6
f 136/1/6 134/1/6 137/1/6
f 134/2/6 130/2/6 138/2/6
f 137/1/6 134/1/6 138/1/6
f 123/1/6 127/1/6 139/1/6
f 127/2/6 135/2/6 139/2/6
f 135/2/6 136/2/6 139/2/6
f 139/2/6 136/2/6 140/2/6
f 137/2/6 138/2/6 141/2/6
f 130/1/6 126/1/6 142/1/6
f 141/2/6 138/2/6 142/2/6
f 138/2/6 130/2/6 142/2/6
f 139/1/6 140/1/6 143/1/6
f 123/1/6 139/1/6 143/1/6
f 143/1/6 140/1/6 144/1/6
f 141/1/6 142/1/6 145/1/6
f 142/1/6 126/1/6 146/1/6
f 145/1/6 142/1/6 146/1/6
f 136/1/6 137/1/6 147/1/6
f 140/2/6 136/2/6 147/2/6
f 137/2/6 141/2/6 148/2/6
f 147/1/6 137/1/6 148/1/6
f 140/2/6 147/2/6 149/2/6
f 144/1/6 140/1/6 149/1/6
f 147/2/6 148/2/6 149/2/6
f 148/2/6 141/2/6 150/2/6
f 149/2/6 148/2/6 150/2/6
f 141/1/6 145/1/6 150/1/6
f 144/1/6 149/1/6 151/1/6
f 149/1/6 150/1/6 151/1/6
f 150/1/6 145/1/6 152/1/6
f 151/1/6 150/1/6 152/1/6
