# MagicaVoxel @ Ephtracy

# group
o 

# material
mtllib Normal_3way.mtl
usemtl palette

# normals
vn -1 0 0
vn 1 0 0
vn 0 0 1
vn 0 0 -1
vn 0 -1 0
vn 0 1 0

# texcoords
vt 0.958984 0.5
vt 0.994141 0.5

# verts
v 0 2 0
v 0 2 -4
v 0 2.3 0
v 0 2.3 -1.6
v 0 2.3 -2.4
v 0 2.3 -4
v 0 2.9 -1.6
v 0 2.9 -2.4
v 1.6 2.3 0
v 1.6 2.3 -1.6
v 1.6 2.9 0
v 1.6 2.9 -1.6
v 2.4 2.3 0
v 2.4 2.3 -1.6
v 2.4 2.9 0
v 2.4 2.9 -1.6
v 4 2 0
v 4 2 -4
v 4 2.3 0
v 4 2.3 -1.6
v 4 2.3 -2.4
v 4 2.3 -4
v 4 2.9 -1.6
v 4 2.9 -2.4
v 0 2 0
v 0 2.3 0
v 1.6 2.3 0
v 1.6 2.9 0
v 2.4 2.3 0
v 2.4 2.9 0
v 4 2 0
v 4 2.3 0
v 0 2.3 -1.6
v 0 2.9 -1.6
v 1.6 2.3 -1.6
v 1.6 2.9 -1.6
v 2.4 2.3 -1.6
v 2.4 2.9 -1.6
v 4 2.3 -1.6
v 4 2.9 -1.6
v 0 2.3 -2.4
v 0 2.9 -2.4
v 4 2.3 -2.4
v 4 2.9 -2.4
v 0 2 -4
v 0 2.3 -4
v 4 2 -4
v 4 2.3 -4
v 0 2 0
v 4 2 0
v 0 2 -4
v 4 2 -4
v 0 2.3 0
v 1.6 2.3 0
v 2.4 2.3 0
v 4 2.3 0
v 0.1 2.3 -0.1
v 1.5 2.3 -0.1
v 2.5 2.3 -0.1
v 3.9 2.3 -0.1
v 0.2 2.3 -0.2
v 1.4 2.3 -0.2
v 2.6 2.3 -0.2
v 3.8 2.3 -0.2
v 0.2 2.3 -1.4
v 1.4 2.3 -1.4
v 2.6 2.3 -1.4
v 3.8 2.3 -1.4
v 0.1 2.3 -1.5
v 1.5 2.3 -1.5
v 2.5 2.3 -1.5
v 3.9 2.3 -1.5
v 0 2.3 -1.6
v 1.6 2.3 -1.6
v 2.4 2.3 -1.6
v 4 2.3 -1.6
v 0 2.3 -2.4
v 4 2.3 -2.4
v 0.1 2.3 -2.5
v 3.9 2.3 -2.5
v 0.2 2.3 -2.6
v 3.8 2.3 -2.6
v 0.2 2.3 -3.8
v 3.8 2.3 -3.8
v 0.1 2.3 -3.9
v 3.9 2.3 -3.9
v 0 2.3 -4
v 4 2.3 -4
v 1.6 2.9 0
v 2.4 2.9 0
v 1.7 2.9 -0.1
v 2.3 2.9 -0.1
v 1.8 2.9 -0.2
v 2.2 2.9 -0.2
v 0 2.9 -1.6
v 1.6 2.9 -1.6
v 2.4 2.9 -1.6
v 4 2.9 -1.6
v 0.1 2.9 -1.7
v 1.7 2.9 -1.7
v 2.3 2.9 -1.7
v 3.9 2.9 -1.7
v 0.2 2.9 -1.8
v 1.8 2.9 -1.8
v 2.2 2.9 -1.8
v 3.8 2.9 -1.8
v 0.2 2.9 -2.2
v 3.8 2.9 -2.2
v 0.1 2.9 -2.3
v 3.9 2.9 -2.3
v 0 2.9 -2.4
v 4 2.9 -2.4

# faces
f 3/2/1 2/2/1 1/2/1
f 4/2/1 2/2/1 3/2/1
f 5/2/1 2/2/1 4/2/1
f 6/2/1 2/2/1 5/2/1
f 7/1/1 5/1/1 4/1/1
f 8/1/1 5/1/1 7/1/1
f 11/1/1 10/1/1 9/1/1
f 12/1/1 10/1/1 11/1/1
f 13/1/2 14/1/2 15/1/2
f 15/1/2 14/1/2 16/1/2
f 17/2/2 18/2/2 19/2/2
f 19/2/2 18/2/2 20/2/2
f 20/2/2 18/2/2 21/2/2
f 21/2/2 18/2/2 22/2/2
f 20/1/2 21/1/2 23/1/2
f 23/1/2 21/1/2 24/1/2
f 27/2/3 26/2/3 25/2/3
f 29/2/3 27/2/3 25/2/3
f 29/1/3 28/1/3 27/1/3
f 30/1/3 28/1/3 29/1/3
f 31/2/3 29/2/3 25/2/3
f 32/2/3 29/2/3 31/2/3
f 35/1/3 34/1/3 33/1/3
f 36/1/3 34/1/3 35/1/3
f 39/1/3 38/1/3 37/1/3
f 40/1/3 38/1/3 39/1/3
f 41/1/4 42/1/4 43/1/4
f 43/1/4 42/1/4 44/1/4
f 45/2/4 46/2/4 47/2/4
f 47/2/4 46/2/4 48/2/4
f 51/2/5 50/2/5 49/2/5
f 52/2/5 50/2/5 51/2/5
f 53/2/6 54/2/6 57/2/6
f 57/2/6 54/2/6 58/2/6
f 55/2/6 56/2/6 59/2/6
f 59/2/6 56/2/6 60/2/6
f 57/1/6 58/1/6 61/1/6
f 61/1/6 58/1/6 62/1/6
f 59/1/6 60/1/6 63/1/6
f 63/1/6 60/1/6 64/1/6
f 57/1/6 61/1/6 65/1/6
f 61/2/6 62/2/6 65/2/6
f 62/1/6 58/1/6 66/1/6
f 65/2/6 62/2/6 66/2/6
f 63/2/6 64/2/6 67/2/6
f 59/1/6 63/1/6 67/1/6
f 64/1/6 60/1/6 68/1/6
f 67/2/6 64/2/6 68/2/6
f 53/2/6 57/2/6 69/2/6
f 57/1/6 65/1/6 69/1/6
f 65/1/6 66/1/6 69/1/6
f 58/2/6 54/2/6 70/2/6
f 69/1/6 66/1/6 70/1/6
f 66/1/6 58/1/6 70/1/6
f 55/2/6 59/2/6 71/2/6
f 67/1/6 68/1/6 71/1/6
f 59/1/6 67/1/6 71/1/6
f 68/1/6 60/1/6 72/1/6
f 71/1/6 68/1/6 72/1/6
f 60/2/6 56/2/6 72/2/6
f 53/2/6 69/2/6 73/2/6
f 69/2/6 70/2/6 73/2/6
f 70/2/6 54/2/6 74/2/6
f 73/2/6 70/2/6 74/2/6
f 55/2/6 71/2/6 75/2/6
f 71/2/6 72/2/6 75/2/6
f 72/2/6 56/2/6 76/2/6
f 75/2/6 72/2/6 76/2/6
f 77/2/6 78/2/6 79/2/6
f 79/2/6 78/2/6 80/2/6
f 79/1/6 80/1/6 81/1/6
f 81/1/6 80/1/6 82/1/6
f 79/1/6 81/1/6 83/1/6
f 81/2/6 82/2/6 83/2/6
f 82/1/6 80/1/6 84/1/6
f 83/2/6 82/2/6 84/2/6
f 77/2/6 79/2/6 85/2/6
f 79/1/6 83/1/6 85/1/6
f 83/1/6 84/1/6 85/1/6
f 84/1/6 80/1/6 86/1/6
f 85/1/6 84/1/6 86/1/6
f 80/2/6 78/2/6 86/2/6
f 77/2/6 85/2/6 87/2/6
f 85/2/6 86/2/6 87/2/6
f 86/2/6 78/2/6 88/2/6
f 87/2/6 86/2/6 88/2/6
f 89/1/6 90/1/6 91/1/6
f 91/1/6 90/1/6 92/1/6
f 91/2/6 92/2/6 93/2/6
f 93/2/6 92/2/6 94/2/6
f 89/1/6 91/1/6 96/1/6
f 92/1/6 90/1/6 97/1/6
f 95/1/6 96/1/6 99/1/6
f 91/2/6 93/2/6 100/2/6
f 99/1/6 96/1/6 100/1/6
f 96/1/6 91/1/6 100/1/6
f 94/2/6 92/2/6 101/2/6
f 97/1/6 98/1/6 101/1/6
f 92/1/6 97/1/6 101/1/6
f 101/1/6 98/1/6 102/1/6
f 99/2/6 100/2/6 103/2/6
f 100/2/6 93/2/6 104/2/6
f 103/2/6 100/2/6 104/2/6
f 93/1/6 94/1/6 104/1/6
f 101/2/6 102/2/6 105/2/6
f 104/1/6 94/1/6 105/1/6
f 94/2/6 101/2/6 105/2/6
f 105/2/6 102/2/6 106/2/6
f 99/2/6 103/2/6 107/2/6
f 103/1/6 104/1/6 107/1/6
f 105/1/6 106/1/6 107/1/6
f 104/1/6 105/1/6 107/1/6
f 106/2/6 102/2/6 108/2/6
f 107/1/6 106/1/6 108/1/6
f 99/2/6 107/2/6 109/2/6
f 95/1/6 99/1/6 109/1/6
f 107/2/6 108/2/6 109/2/6
f 108/2/6 102/2/6 110/2/6
f 109/2/6 108/2/6 110/2/6
f 102/1/6 98/1/6 110/1/6
f 95/1/6 109/1/6 111/1/6
f 109/1/6 110/1/6 111/1/6
f 110/1/6 98/1/6 112/1/6
f 111/1/6 110/1/6 112/1/6
