# MagicaVoxel @ Ephtracy

# group
o 

# material
mtllib Normal_2way.mtl
usemtl palette

# normals
vn -1 0 0
vn 1 0 0
vn 0 0 1
vn 0 0 -1
vn 0 -1 0
vn 0 1 0

# texcoords
vt 0.958984 0.5
vt 0.994141 0.5

# verts
v 0 2 0
v 0 2 -4
v 0 2.3 0
v 0 2.3 -1.6
v 0 2.3 -2.4
v 0 2.3 -4
v 0 2.9 -1.6
v 0 2.9 -2.4
v 1.6 2.3 0
v 1.6 2.3 -1.6
v 1.6 2.9 0
v 1.6 2.9 -1.6
v 2.4 2.3 0
v 2.4 2.3 -2.4
v 2.4 2.9 0
v 2.4 2.9 -2.4
v 4 2 0
v 4 2 -4
v 4 2.3 0
v 4 2.3 -4
v 0 2 0
v 0 2.3 0
v 1.6 2.3 0
v 1.6 2.9 0
v 2.4 2.3 0
v 2.4 2.9 0
v 4 2 0
v 4 2.3 0
v 0 2.3 -1.6
v 0 2.9 -1.6
v 1.6 2.3 -1.6
v 1.6 2.9 -1.6
v 0 2.3 -2.4
v 0 2.9 -2.4
v 2.4 2.3 -2.4
v 2.4 2.9 -2.4
v 0 2 -4
v 0 2.3 -4
v 4 2 -4
v 4 2.3 -4
v 0 2 0
v 4 2 0
v 0 2 -4
v 4 2 -4
v 0 2.3 0
v 1.6 2.3 0
v 2.4 2.3 0
v 4 2.3 0
v 0.1 2.3 -0.1
v 1.5 2.3 -0.1
v 2.5 2.3 -0.1
v 3.9 2.3 -0.1
v 0.2 2.3 -0.2
v 1.4 2.3 -0.2
v 2.6 2.3 -0.2
v 3.8 2.3 -0.2
v 0.2 2.3 -1.4
v 1.4 2.3 -1.4
v 0.1 2.3 -1.5
v 1.5 2.3 -1.5
v 0 2.3 -1.6
v 1.6 2.3 -1.6
v 0 2.3 -2.4
v 2.4 2.3 -2.4
v 0.1 2.3 -2.5
v 2.5 2.3 -2.5
v 0.2 2.3 -2.6
v 2.6 2.3 -2.6
v 0.2 2.3 -3.8
v 3.8 2.3 -3.8
v 0.1 2.3 -3.9
v 3.9 2.3 -3.9
v 0 2.3 -4
v 4 2.3 -4
v 1.6 2.9 0
v 2.4 2.9 0
v 1.7 2.9 -0.1
v 2.3 2.9 -0.1
v 1.8 2.9 -0.2
v 2.2 2.9 -0.2
v 0 2.9 -1.6
v 1.6 2.9 -1.6
v 0.1 2.9 -1.7
v 1.7 2.9 -1.7
v 0.2 2.9 -1.8
v 1.8 2.9 -1.8
v 0.2 2.9 -2.2
v 2.2 2.9 -2.2
v 0.1 2.9 -2.3
v 2.3 2.9 -2.3
v 0 2.9 -2.4
v 2.4 2.9 -2.4

# faces
f 3/2/1 2/2/1 1/2/1
f 4/2/1 2/2/1 3/2/1
f 5/2/1 2/2/1 4/2/1
f 6/2/1 2/2/1 5/2/1
f 7/1/1 5/1/1 4/1/1
f 8/1/1 5/1/1 7/1/1
f 11/1/1 10/1/1 9/1/1
f 12/1/1 10/1/1 11/1/1
f 13/1/2 14/1/2 15/1/2
f 15/1/2 14/1/2 16/1/2
f 17/2/2 18/2/2 19/2/2
f 19/2/2 18/2/2 20/2/2
f 23/2/3 22/2/3 21/2/3
f 25/2/3 23/2/3 21/2/3
f 25/1/3 24/1/3 23/1/3
f 26/1/3 24/1/3 25/1/3
f 27/2/3 25/2/3 21/2/3
f 28/2/3 25/2/3 27/2/3
f 31/1/3 30/1/3 29/1/3
f 32/1/3 30/1/3 31/1/3
f 33/1/4 34/1/4 35/1/4
f 35/1/4 34/1/4 36/1/4
f 37/2/4 38/2/4 39/2/4
f 39/2/4 38/2/4 40/2/4
f 43/2/5 42/2/5 41/2/5
f 44/2/5 42/2/5 43/2/5
f 45/2/6 46/2/6 49/2/6
f 49/2/6 46/2/6 50/2/6
f 47/2/6 48/2/6 51/2/6
f 51/2/6 48/2/6 52/2/6
f 49/1/6 50/1/6 53/1/6
f 53/1/6 50/1/6 54/1/6
f 51/1/6 52/1/6 55/1/6
f 55/1/6 52/1/6 56/1/6
f 49/1/6 53/1/6 57/1/6
f 53/2/6 54/2/6 57/2/6
f 54/1/6 50/1/6 58/1/6
f 57/2/6 54/2/6 58/2/6
f 45/2/6 49/2/6 59/2/6
f 49/1/6 57/1/6 59/1/6
f 57/1/6 58/1/6 59/1/6
f 50/2/6 46/2/6 60/2/6
f 59/1/6 58/1/6 60/1/6
f 58/1/6 50/1/6 60/1/6
f 45/2/6 59/2/6 61/2/6
f 59/2/6 60/2/6 61/2/6
f 60/2/6 46/2/6 62/2/6
f 61/2/6 60/2/6 62/2/6
f 47/2/6 51/2/6 64/2/6
f 63/2/6 64/2/6 65/2/6
f 51/1/6 55/1/6 66/1/6
f 65/2/6 64/2/6 66/2/6
f 64/2/6 51/2/6 66/2/6
f 65/1/6 66/1/6 67/1/6
f 55/2/6 56/2/6 68/2/6
f 67/1/6 66/1/6 68/1/6
f 66/1/6 55/1/6 68/1/6
f 65/1/6 67/1/6 69/1/6
f 67/2/6 68/2/6 69/2/6
f 68/2/6 56/2/6 70/2/6
f 69/2/6 68/2/6 70/2/6
f 56/1/6 52/1/6 70/1/6
f 65/1/6 69/1/6 71/1/6
f 63/2/6 65/2/6 71/2/6
f 69/1/6 70/1/6 71/1/6
f 70/1/6 52/1/6 72/1/6
f 71/1/6 70/1/6 72/1/6
f 52/2/6 48/2/6 72/2/6
f 63/2/6 71/2/6 73/2/6
f 71/2/6 72/2/6 73/2/6
f 72/2/6 48/2/6 74/2/6
f 73/2/6 72/2/6 74/2/6
f 75/1/6 76/1/6 77/1/6
f 77/1/6 76/1/6 78/1/6
f 77/2/6 78/2/6 79/2/6
f 79/2/6 78/2/6 80/2/6
f 75/1/6 77/1/6 82/1/6
f 81/1/6 82/1/6 83/1/6
f 77/2/6 79/2/6 84/2/6
f 83/1/6 82/1/6 84/1/6
f 82/1/6 77/1/6 84/1/6
f 83/2/6 84/2/6 85/2/6
f 79/1/6 80/1/6 86/1/6
f 85/2/6 84/2/6 86/2/6
f 84/2/6 79/2/6 86/2/6
f 83/2/6 85/2/6 87/2/6
f 85/1/6 86/1/6 87/1/6
f 80/2/6 78/2/6 88/2/6
f 87/1/6 86/1/6 88/1/6
f 86/1/6 80/1/6 88/1/6
f 83/2/6 87/2/6 89/2/6
f 81/1/6 83/1/6 89/1/6
f 87/2/6 88/2/6 89/2/6
f 88/2/6 78/2/6 90/2/6
f 89/2/6 88/2/6 90/2/6
f 78/1/6 76/1/6 90/1/6
f 81/1/6 89/1/6 91/1/6
f 89/1/6 90/1/6 91/1/6
f 90/1/6 76/1/6 92/1/6
f 91/1/6 90/1/6 92/1/6
