# MagicaVoxel @ Ephtracy

# group
o 

# material
mtllib Door Tile.mtl
usemtl palette

# normals
vn -1 0 0
vn 1 0 0
vn 0 0 1
vn 0 0 -1
vn 0 -1 0
vn 0 1 0

# texcoords
vt 0.587891 0.5
vt 0.591797 0.5
vt 0.611328 0.5
vt 0.615234 0.5
vt 0.619141 0.5
vt 0.994141 0.5

# verts
v -2 0 2
v -2 0 -2
v -2 0.3 0.4
v -2 0.3 0.3
v -2 0.4 2
v -2 0.4 0.4
v -2 0.4 0.3
v -2 0.4 -2
v 2 0 2
v 2 0 -2
v 2 0.4 2
v 2 0.4 -2
v -2 0 2
v -2 0.4 2
v 2 0 2
v 2 0.4 2
v -2 0 -2
v -2 0.4 -2
v 2 0 -2
v 2 0.4 -2
v -2 0 2
v 2 0 2
v -2 0 -2
v 2 0 -2
v -2 0.4 2
v 2 0.4 2
v 0.7 0.4 0.7
v 0.8 0.4 0.7
v 0.7 0.4 0.6
v 0.8 0.4 0.6
v 1 0.4 0.6
v 0.8 0.4 0.5
v 1 0.4 0.5
v 1.1 0.4 0.5
v 1.2 0.4 0.5
v -2 0.4 0.4
v -1.9 0.4 0.4
v -1.4 0.4 0.4
v -1.2 0.4 0.4
v -0.7 0.4 0.4
v -0.6 0.4 0.4
v -0.0999999 0.4 0.4
v 2.38419e-007 0.4 0.4
v 0.5 0.4 0.4
v 0.6 0.4 0.4
v 0.9 0.4 0.4
v 1 0.4 0.4
v 1.1 0.4 0.4
v 1.2 0.4 0.4
v 1.4 0.4 0.4
v -2 0.4 0.3
v -1.9 0.4 0.3
v -1.8 0.4 0.3
v -1.7 0.4 0.3
v -1.4 0.4 0.3
v -1.2 0.4 0.3
v -1.1 0.4 0.3
v -1 0.4 0.3
v -0.7 0.4 0.3
v -0.6 0.4 0.3
v -0.5 0.4 0.3
v -0.4 0.4 0.3
v -0.3 0.4 0.3
v -0.2 0.4 0.3
v -0.0999999 0.4 0.3
v 2.38419e-007 0.4 0.3
v 0.1 0.4 0.3
v 0.2 0.4 0.3
v 0.3 0.4 0.3
v 0.4 0.4 0.3
v 0.6 0.4 0.3
v 0.7 0.4 0.3
v 0.8 0.4 0.3
v 0.9 0.4 0.3
v 1 0.4 0.3
v 1.1 0.4 0.3
v 1.2 0.4 0.3
v 1.3 0.4 0.3
v 1.5 0.4 0.3
v 1.6 0.4 0.3
v -1.8 0.4 0.2
v -1.7 0.4 0.2
v -1.4 0.4 0.2
v -1.3 0.4 0.2
v -1.1 0.4 0.2
v -1 0.4 0.2
v -0.7 0.4 0.2
v -0.6 0.4 0.2
v -0.5 0.4 0.2
v -0.4 0.4 0.2
v -0.3 0.4 0.2
v -0.2 0.4 0.2
v -0.0999999 0.4 0.2
v 2.38419e-007 0.4 0.2
v 0.1 0.4 0.2
v 0.2 0.4 0.2
v 0.3 0.4 0.2
v 0.4 0.4 0.2
v 0.5 0.4 0.2
v 0.7 0.4 0.2
v 0.8 0.4 0.2
v 0.9 0.4 0.2
v 1 0.4 0.2
v 1.1 0.4 0.2
v 1.2 0.4 0.2
v 1.3 0.4 0.2
v 1.4 0.4 0.2
v 1.5 0.4 0.2
v 1.6 0.4 0.2
v 1.7 0.4 0.2
v 1.8 0.4 0.2
v -1.6 0.4 0.0999999
v -1.5 0.4 0.0999999
v -1.4 0.4 0.0999999
v -1.3 0.4 0.0999999
v -1 0.4 0.0999999
v -0.9 0.4 0.0999999
v -0.7 0.4 0.0999999
v -0.6 0.4 0.0999999
v -0.5 0.4 0.0999999
v -0.4 0.4 0.0999999
v -0.3 0.4 0.0999999
v -0.2 0.4 0.0999999
v -0.0999999 0.4 0.0999999
v 2.38419e-007 0.4 0.0999999
v 0.1 0.4 0.0999999
v 0.2 0.4 0.0999999
v 0.3 0.4 0.0999999
v 0.4 0.4 0.0999999
v 0.5 0.4 0.0999999
v 0.6 0.4 0.0999999
v 0.7 0.4 0.0999999
v 0.8 0.4 0.0999999
v 0.9 0.4 0.0999999
v 1.1 0.4 0.0999999
v 1.2 0.4 0.0999999
v 1.3 0.4 0.0999999
v 1.4 0.4 0.0999999
v 1.5 0.4 0.0999999
v 1.6 0.4 0.0999999
v 1.7 0.4 0.0999999
v 1.8 0.4 0.0999999
v 1.9 0.4 0.0999999
v -1.6 0.4 -2.38419e-007
v -1.5 0.4 -2.38419e-007
v -1.2 0.4 -2.38419e-007
v -1.1 0.4 -2.38419e-007
v -1 0.4 -2.38419e-007
v -0.9 0.4 -2.38419e-007
v -0.8 0.4 -2.38419e-007
v -0.7 0.4 -2.38419e-007
v -0.5 0.4 -2.38419e-007
v -0.3 0.4 -2.38419e-007
v -0.2 0.4 -2.38419e-007
v -0.0999999 0.4 -2.38419e-007
v 2.38419e-007 0.4 -2.38419e-007
v 0.1 0.4 -2.38419e-007
v 0.2 0.4 -2.38419e-007
v 0.3 0.4 -2.38419e-007
v 0.4 0.4 -2.38419e-007
v 0.5 0.4 -2.38419e-007
v 0.6 0.4 -2.38419e-007
v 0.7 0.4 -2.38419e-007
v 0.8 0.4 -2.38419e-007
v 0.9 0.4 -2.38419e-007
v 1 0.4 -2.38419e-007
v 1.1 0.4 -2.38419e-007
v 1.2 0.4 -2.38419e-007
v 1.3 0.4 -2.38419e-007
v 1.4 0.4 -2.38419e-007
v 1.5 0.4 -2.38419e-007
v 1.6 0.4 -2.38419e-007
v 1.7 0.4 -2.38419e-007
v 1.8 0.4 -2.38419e-007
v 1.9 0.4 -2.38419e-007
v -1.2 0.4 -0.1
v -1.1 0.4 -0.1
v -0.8 0.4 -0.1
v -0.7 0.4 -0.1
v -0.6 0.4 -0.1
v -0.5 0.4 -0.1
v -0.3 0.4 -0.1
v -0.2 0.4 -0.1
v -0.0999999 0.4 -0.1
v 2.38419e-007 0.4 -0.1
v 0.1 0.4 -0.1
v 0.2 0.4 -0.1
v 0.3 0.4 -0.1
v 0.4 0.4 -0.1
v 0.5 0.4 -0.1
v 0.7 0.4 -0.1
v 0.8 0.4 -0.1
v 0.9 0.4 -0.1
v 1 0.4 -0.1
v 1.1 0.4 -0.1
v 1.2 0.4 -0.1
v 1.3 0.4 -0.1
v 1.4 0.4 -0.1
v 1.5 0.4 -0.1
v 1.6 0.4 -0.1
v 1.7 0.4 -0.1
v -0.9 0.4 -0.2
v -0.8 0.4 -0.2
v -0.6 0.4 -0.2
v -0.5 0.4 -0.2
v -0.4 0.4 -0.2
v -0.3 0.4 -0.2
v -0.2 0.4 -0.2
v -0.0999999 0.4 -0.2
v 2.38419e-007 0.4 -0.2
v 0.1 0.4 -0.2
v 0.2 0.4 -0.2
v 0.3 0.4 -0.2
v 0.4 0.4 -0.2
v 0.5 0.4 -0.2
v 0.6 0.4 -0.2
v 0.7 0.4 -0.2
v 0.8 0.4 -0.2
v 0.9 0.4 -0.2
v 1 0.4 -0.2
v 1.2 0.4 -0.2
v 1.3 0.4 -0.2
v 1.4 0.4 -0.2
v 1.6 0.4 -0.2
v -0.9 0.4 -0.3
v -0.8 0.4 -0.3
v -0.5 0.4 -0.3
v -0.4 0.4 -0.3
v -0.2 0.4 -0.3
v -0.0999999 0.4 -0.3
v 0.4 0.4 -0.3
v 0.5 0.4 -0.3
v 0.6 0.4 -0.3
v 0.7 0.4 -0.3
v 0.9 0.4 -0.3
v 1 0.4 -0.3
v 1.2 0.4 -0.3
v 1.4 0.4 -0.3
v 0.8 0.4 -0.4
v 1 0.4 -0.4
v 1.2 0.4 -0.4
v 0.7 0.4 -0.5
v 0.8 0.4 -0.5
v 1 0.4 -0.5
v 0.7 0.4 -0.6
v 0.8 0.4 -0.6
v -2 0.4 -2
v 2 0.4 -2

# faces
f 3/6/1 2/6/1 1/6/1
f 4/6/1 2/6/1 3/6/1
f 5/6/1 3/6/1 1/6/1
f 6/2/1 4/2/1 3/2/1
f 6/6/1 3/6/1 5/6/1
f 7/6/1 2/6/1 4/6/1
f 7/2/1 4/2/1 6/2/1
f 8/6/1 2/6/1 7/6/1
f 9/6/2 10/6/2 11/6/2
f 11/6/2 10/6/2 12/6/2
f 15/6/3 14/6/3 13/6/3
f 16/6/3 14/6/3 15/6/3
f 17/6/4 18/6/4 19/6/4
f 19/6/4 18/6/4 20/6/4
f 23/6/5 22/6/5 21/6/5
f 24/6/5 22/6/5 23/6/5
f 25/6/6 26/6/6 27/6/6
f 27/6/6 26/6/6 28/6/6
f 25/6/6 27/6/6 29/6/6
f 27/4/6 28/4/6 29/4/6
f 28/6/6 26/6/6 30/6/6
f 29/4/6 28/4/6 30/4/6
f 30/6/6 26/6/6 31/6/6
f 29/6/6 30/6/6 32/6/6
f 30/5/6 31/5/6 32/5/6
f 31/6/6 26/6/6 33/6/6
f 32/5/6 31/5/6 33/5/6
f 33/6/6 26/6/6 34/6/6
f 34/6/6 26/6/6 35/6/6
f 25/6/6 29/6/6 36/6/6
f 29/6/6 32/6/6 36/6/6
f 32/6/6 33/6/6 36/6/6
f 36/6/6 33/6/6 37/6/6
f 37/6/6 33/6/6 38/6/6
f 38/6/6 33/6/6 39/6/6
f 39/6/6 33/6/6 40/6/6
f 40/6/6 33/6/6 41/6/6
f 41/6/6 33/6/6 42/6/6
f 42/6/6 33/6/6 43/6/6
f 43/6/6 33/6/6 44/6/6
f 44/6/6 33/6/6 45/6/6
f 45/6/6 33/6/6 46/6/6
f 33/1/6 34/1/6 47/1/6
f 46/6/6 33/6/6 47/6/6
f 34/5/6 35/5/6 48/5/6
f 47/1/6 34/1/6 48/1/6
f 35/6/6 26/6/6 49/6/6
f 48/5/6 35/5/6 49/5/6
f 49/6/6 26/6/6 50/6/6
f 36/2/6 37/2/6 51/2/6
f 37/6/6 38/6/6 52/6/6
f 51/2/6 37/2/6 52/2/6
f 52/6/6 38/6/6 53/6/6
f 53/6/6 38/6/6 54/6/6
f 38/3/6 39/3/6 55/3/6
f 54/6/6 38/6/6 55/6/6
f 39/6/6 40/6/6 56/6/6
f 55/3/6 39/3/6 56/3/6
f 56/6/6 40/6/6 57/6/6
f 57/6/6 40/6/6 58/6/6
f 40/3/6 41/3/6 59/3/6
f 58/6/6 40/6/6 59/6/6
f 41/6/6 42/6/6 60/6/6
f 59/3/6 41/3/6 60/3/6
f 60/6/6 42/6/6 61/6/6
f 61/6/6 42/6/6 62/6/6
f 62/6/6 42/6/6 63/6/6
f 63/6/6 42/6/6 64/6/6
f 42/4/6 43/4/6 65/4/6
f 64/6/6 42/6/6 65/6/6
f 43/6/6 44/6/6 66/6/6
f 65/4/6 43/4/6 66/4/6
f 66/6/6 44/6/6 67/6/6
f 67/6/6 44/6/6 68/6/6
f 68/6/6 44/6/6 69/6/6
f 69/6/6 44/6/6 70/6/6
f 45/6/6 46/6/6 71/6/6
f 44/4/6 45/4/6 71/4/6
f 71/6/6 46/6/6 72/6/6
f 72/6/6 46/6/6 73/6/6
f 46/5/6 47/5/6 74/5/6
f 73/6/6 46/6/6 74/6/6
f 47/6/6 48/6/6 75/6/6
f 74/5/6 47/5/6 75/5/6
f 48/6/6 49/6/6 75/6/6
f 75/6/6 49/6/6 76/6/6
f 49/5/6 50/5/6 77/5/6
f 76/6/6 49/6/6 77/6/6
f 77/5/6 50/5/6 78/5/6
f 50/6/6 26/6/6 79/6/6
f 79/6/6 26/6/6 80/6/6
f 53/2/6 54/2/6 81/2/6
f 51/6/6 52/6/6 81/6/6
f 52/6/6 53/6/6 81/6/6
f 54/6/6 55/6/6 82/6/6
f 81/2/6 54/2/6 82/2/6
f 55/6/6 56/6/6 82/6/6
f 56/6/6 57/6/6 82/6/6
f 82/6/6 57/6/6 83/6/6
f 83/6/6 57/6/6 84/6/6
f 57/3/6 58/3/6 85/3/6
f 84/6/6 57/6/6 85/6/6
f 58/6/6 59/6/6 86/6/6
f 85/3/6 58/3/6 86/3/6
f 59/6/6 60/6/6 86/6/6
f 60/6/6 61/6/6 86/6/6
f 86/6/6 61/6/6 87/6/6
f 87/6/6 61/6/6 88/6/6
f 61/3/6 62/3/6 89/3/6
f 88/6/6 61/6/6 89/6/6
f 62/6/6 63/6/6 90/6/6
f 89/3/6 62/3/6 90/3/6
f 63/4/6 64/4/6 91/4/6
f 90/6/6 63/6/6 91/6/6
f 64/6/6 65/6/6 92/6/6
f 91/4/6 64/4/6 92/4/6
f 65/6/6 66/6/6 92/6/6
f 92/6/6 66/6/6 93/6/6
f 66/1/6 67/1/6 94/1/6
f 93/6/6 66/6/6 94/6/6
f 67/4/6 68/4/6 95/4/6
f 94/1/6 67/1/6 95/1/6
f 68/6/6 69/6/6 96/6/6
f 95/4/6 68/4/6 96/4/6
f 69/4/6 70/4/6 97/4/6
f 96/6/6 69/6/6 97/6/6
f 70/6/6 44/6/6 98/6/6
f 97/4/6 70/4/6 98/4/6
f 71/4/6 72/4/6 99/4/6
f 98/6/6 44/6/6 99/6/6
f 44/4/6 71/4/6 99/4/6
f 72/6/6 73/6/6 100/6/6
f 99/4/6 72/4/6 100/4/6
f 73/1/6 74/1/6 101/1/6
f 100/6/6 73/6/6 101/6/6
f 74/1/6 75/1/6 101/1/6
f 101/1/6 75/1/6 102/1/6
f 75/6/6 76/6/6 103/6/6
f 102/1/6 75/1/6 103/1/6
f 76/5/6 77/5/6 104/5/6
f 103/6/6 76/6/6 104/6/6
f 77/6/6 78/6/6 105/6/6
f 104/5/6 77/5/6 105/5/6
f 78/5/6 50/5/6 106/5/6
f 105/6/6 78/6/6 106/6/6
f 50/6/6 79/6/6 107/6/6
f 106/5/6 50/5/6 107/5/6
f 79/5/6 80/5/6 108/5/6
f 107/6/6 79/6/6 108/6/6
f 80/6/6 26/6/6 109/6/6
f 108/5/6 80/5/6 109/5/6
f 109/6/6 26/6/6 110/6/6
f 110/6/6 26/6/6 111/6/6
f 82/6/6 83/6/6 112/6/6
f 81/6/6 82/6/6 112/6/6
f 112/6/6 83/6/6 113/6/6
f 83/3/6 84/3/6 114/3/6
f 113/6/6 83/6/6 114/6/6
f 84/6/6 85/6/6 115/6/6
f 114/3/6 84/3/6 115/3/6
f 86/6/6 87/6/6 115/6/6
f 85/6/6 86/6/6 115/6/6
f 115/6/6 87/6/6 116/6/6
f 116/6/6 87/6/6 117/6/6
f 87/3/6 88/3/6 118/3/6
f 117/6/6 87/6/6 118/6/6
f 88/2/6 89/2/6 119/2/6
f 118/3/6 88/3/6 119/3/6
f 89/6/6 90/6/6 120/6/6
f 119/2/6 89/2/6 120/2/6
f 90/3/6 91/3/6 121/3/6
f 120/6/6 90/6/6 121/6/6
f 92/6/6 93/6/6 122/6/6
f 121/3/6 91/3/6 122/3/6
f 91/6/6 92/6/6 122/6/6
f 122/6/6 93/6/6 123/6/6
f 93/4/6 94/4/6 124/4/6
f 123/6/6 93/6/6 124/6/6
f 96/6/6 97/6/6 125/6/6
f 124/4/6 94/4/6 125/4/6
f 95/6/6 96/6/6 125/6/6
f 97/6/6 98/6/6 125/6/6
f 94/6/6 95/6/6 125/6/6
f 125/6/6 98/6/6 126/6/6
f 126/6/6 98/6/6 127/6/6
f 127/6/6 98/6/6 128/6/6
f 98/4/6 99/4/6 129/4/6
f 128/6/6 98/6/6 129/6/6
f 99/6/6 100/6/6 130/6/6
f 129/4/6 99/4/6 130/4/6
f 130/6/6 100/6/6 131/6/6
f 100/4/6 101/4/6 132/4/6
f 131/6/6 100/6/6 132/6/6
f 101/6/6 102/6/6 133/6/6
f 132/4/6 101/4/6 133/4/6
f 103/5/6 104/5/6 134/5/6
f 133/6/6 102/6/6 134/6/6
f 102/5/6 103/5/6 134/5/6
f 104/6/6 105/6/6 135/6/6
f 134/5/6 104/5/6 135/5/6
f 105/5/6 106/5/6 136/5/6
f 135/6/6 105/6/6 136/6/6
f 106/6/6 107/6/6 137/6/6
f 136/5/6 106/5/6 137/5/6
f 107/1/6 108/1/6 138/1/6
f 137/6/6 107/6/6 138/6/6
f 108/1/6 109/1/6 138/1/6
f 109/1/6 110/1/6 138/1/6
f 138/1/6 110/1/6 139/1/6
f 139/1/6 110/1/6 140/1/6
f 110/5/6 111/5/6 141/5/6
f 140/1/6 110/1/6 141/1/6
f 111/6/6 26/6/6 142/6/6
f 141/5/6 111/5/6 142/5/6
f 142/6/6 26/6/6 143/6/6
f 112/3/6 113/3/6 144/3/6
f 81/6/6 112/6/6 144/6/6
f 113/6/6 114/6/6 145/6/6
f 144/3/6 113/3/6 145/3/6
f 114/6/6 115/6/6 145/6/6
f 115/6/6 116/6/6 145/6/6
f 145/6/6 116/6/6 146/6/6
f 146/6/6 116/6/6 147/6/6
f 116/3/6 117/3/6 148/3/6
f 147/6/6 116/6/6 148/6/6
f 118/6/6 119/6/6 149/6/6
f 148/3/6 117/3/6 149/3/6
f 119/6/6 120/6/6 149/6/6
f 121/6/6 122/6/6 149/6/6
f 117/6/6 118/6/6 149/6/6
f 120/6/6 121/6/6 149/6/6
f 122/6/6 123/6/6 149/6/6
f 149/6/6 123/6/6 150/6/6
f 150/6/6 123/6/6 151/6/6
f 151/6/6 123/6/6 152/6/6
f 152/6/6 123/6/6 153/6/6
f 123/2/6 124/2/6 154/2/6
f 153/6/6 123/6/6 154/6/6
f 124/6/6 125/6/6 155/6/6
f 154/2/6 124/2/6 155/2/6
f 125/2/6 126/2/6 156/2/6
f 155/6/6 125/6/6 156/6/6
f 126/6/6 127/6/6 157/6/6
f 156/2/6 126/2/6 157/2/6
f 127/1/6 128/1/6 158/1/6
f 157/6/6 127/6/6 158/6/6
f 128/4/6 129/4/6 159/4/6
f 158/1/6 128/1/6 159/1/6
f 129/6/6 130/6/6 160/6/6
f 159/4/6 129/4/6 160/4/6
f 130/6/6 131/6/6 160/6/6
f 160/6/6 131/6/6 161/6/6
f 131/2/6 132/2/6 162/2/6
f 161/6/6 131/6/6 162/6/6
f 132/6/6 133/6/6 163/6/6
f 162/2/6 132/2/6 163/2/6
f 133/5/6 134/5/6 164/5/6
f 163/6/6 133/6/6 164/6/6
f 134/6/6 135/6/6 165/6/6
f 164/5/6 134/5/6 165/5/6
f 165/6/6 135/6/6 166/6/6
f 135/1/6 136/1/6 167/1/6
f 166/6/6 135/6/6 167/6/6
f 136/2/6 137/2/6 168/2/6
f 167/1/6 136/1/6 168/1/6
f 137/2/6 138/2/6 168/2/6
f 168/2/6 138/2/6 169/2/6
f 138/5/6 139/5/6 170/5/6
f 169/2/6 138/2/6 170/2/6
f 139/6/6 140/6/6 171/6/6
f 170/5/6 139/5/6 171/5/6
f 140/5/6 141/5/6 172/5/6
f 171/6/6 140/6/6 172/6/6
f 141/1/6 142/1/6 173/1/6
f 172/5/6 141/5/6 173/5/6
f 142/2/6 143/2/6 174/2/6
f 173/1/6 142/1/6 174/1/6
f 143/6/6 26/6/6 175/6/6
f 174/2/6 143/2/6 175/2/6
f 145/6/6 146/6/6 176/6/6
f 144/6/6 145/6/6 176/6/6
f 146/3/6 147/3/6 176/3/6
f 147/6/6 148/6/6 177/6/6
f 176/3/6 147/3/6 177/3/6
f 148/6/6 149/6/6 177/6/6
f 149/6/6 150/6/6 177/6/6
f 150/2/6 151/2/6 178/2/6
f 177/6/6 150/6/6 178/6/6
f 151/6/6 152/6/6 179/6/6
f 178/2/6 151/2/6 179/2/6
f 179/6/6 152/6/6 180/6/6
f 152/2/6 153/2/6 181/2/6
f 180/6/6 152/6/6 181/6/6
f 153/6/6 154/6/6 182/6/6
f 181/2/6 153/2/6 182/2/6
f 155/6/6 156/6/6 182/6/6
f 154/6/6 155/6/6 182/6/6
f 182/6/6 156/6/6 183/6/6
f 183/6/6 156/6/6 184/6/6
f 156/4/6 157/4/6 185/4/6
f 184/6/6 156/6/6 185/6/6
f 157/6/6 158/6/6 186/6/6
f 185/4/6 157/4/6 186/4/6
f 160/6/6 161/6/6 186/6/6
f 158/6/6 159/6/6 186/6/6
f 159/6/6 160/6/6 186/6/6
f 186/6/6 161/6/6 187/6/6
f 187/6/6 161/6/6 188/6/6
f 188/6/6 161/6/6 189/6/6
f 161/4/6 162/4/6 190/4/6
f 189/6/6 161/6/6 190/6/6
f 162/6/6 163/6/6 191/6/6
f 163/4/6 164/4/6 191/4/6
f 164/4/6 165/4/6 191/4/6
f 191/4/6 165/4/6 192/4/6
f 165/6/6 166/6/6 193/6/6
f 192/4/6 165/4/6 193/4/6
f 166/1/6 167/1/6 194/1/6
f 193/6/6 166/6/6 194/6/6
f 167/6/6 168/6/6 195/6/6
f 194/1/6 167/1/6 195/1/6
f 168/6/6 169/6/6 195/6/6
f 195/6/6 169/6/6 196/6/6
f 169/5/6 170/5/6 197/5/6
f 196/6/6 169/6/6 197/6/6
f 170/6/6 171/6/6 198/6/6
f 197/5/6 170/5/6 198/5/6
f 171/1/6 172/1/6 199/1/6
f 198/6/6 171/6/6 199/6/6
f 172/5/6 173/5/6 200/5/6
f 199/1/6 172/1/6 200/1/6
f 173/6/6 174/6/6 201/6/6
f 200/5/6 173/5/6 201/5/6
f 174/6/6 175/6/6 201/6/6
f 179/6/6 180/6/6 202/6/6
f 177/6/6 178/6/6 202/6/6
f 178/6/6 179/6/6 202/6/6
f 176/6/6 177/6/6 202/6/6
f 202/6/6 180/6/6 203/6/6
f 180/3/6 181/3/6 204/3/6
f 203/6/6 180/6/6 204/6/6
f 181/6/6 182/6/6 205/6/6
f 204/3/6 181/3/6 205/3/6
f 205/6/6 182/6/6 206/6/6
f 182/4/6 183/4/6 207/4/6
f 206/6/6 182/6/6 207/6/6
f 183/6/6 184/6/6 208/6/6
f 207/4/6 183/4/6 208/4/6
f 184/4/6 185/4/6 209/4/6
f 208/6/6 184/6/6 209/6/6
f 185/6/6 186/6/6 210/6/6
f 209/4/6 185/4/6 210/4/6
f 186/4/6 187/4/6 211/4/6
f 210/6/6 186/6/6 211/6/6
f 187/6/6 188/6/6 212/6/6
f 211/4/6 187/4/6 212/4/6
f 188/4/6 189/4/6 213/4/6
f 212/6/6 188/6/6 213/6/6
f 189/2/6 190/2/6 214/2/6
f 213/4/6 189/4/6 214/4/6
f 190/4/6 162/4/6 215/4/6
f 214/2/6 190/2/6 215/2/6
f 191/6/6 192/6/6 216/6/6
f 215/4/6 162/4/6 216/4/6
f 162/6/6 191/6/6 216/6/6
f 216/6/6 192/6/6 217/6/6
f 192/4/6 193/4/6 218/4/6
f 217/6/6 192/6/6 218/6/6
f 193/4/6 194/4/6 218/4/6
f 218/4/6 194/4/6 219/4/6
f 194/1/6 195/1/6 220/1/6
f 219/4/6 194/4/6 220/4/6
f 195/1/6 196/1/6 220/1/6
f 196/5/6 197/5/6 221/5/6
f 220/1/6 196/1/6 221/1/6
f 197/6/6 198/6/6 222/6/6
f 221/5/6 197/5/6 222/5/6
f 199/1/6 200/1/6 223/1/6
f 222/6/6 198/6/6 223/6/6
f 198/1/6 199/1/6 223/1/6
f 200/6/6 201/6/6 224/6/6
f 223/1/6 200/1/6 224/1/6
f 176/6/6 202/6/6 225/6/6
f 202/3/6 203/3/6 225/3/6
f 203/6/6 204/6/6 226/6/6
f 225/3/6 203/3/6 226/3/6
f 204/6/6 205/6/6 226/6/6
f 205/3/6 206/3/6 227/3/6
f 226/6/6 205/6/6 227/6/6
f 207/6/6 208/6/6 228/6/6
f 227/3/6 206/3/6 228/3/6
f 206/6/6 207/6/6 228/6/6
f 208/4/6 209/4/6 229/4/6
f 228/6/6 208/6/6 229/6/6
f 213/6/6 214/6/6 230/6/6
f 229/4/6 209/4/6 230/4/6
f 212/6/6 213/6/6 230/6/6
f 209/6/6 210/6/6 230/6/6
f 211/6/6 212/6/6 230/6/6
f 210/6/6 211/6/6 230/6/6
f 214/4/6 215/4/6 231/4/6
f 230/6/6 214/6/6 231/6/6
f 215/6/6 216/6/6 232/6/6
f 231/4/6 215/4/6 232/4/6
f 216/2/6 217/2/6 233/2/6
f 232/6/6 216/6/6 233/6/6
f 218/4/6 219/4/6 234/4/6
f 233/2/6 217/2/6 234/2/6
f 217/4/6 218/4/6 234/4/6
f 220/6/6 221/6/6 235/6/6
f 234/4/6 219/4/6 235/4/6
f 219/6/6 220/6/6 235/6/6
f 235/6/6 221/6/6 236/6/6
f 221/5/6 222/5/6 237/5/6
f 236/6/6 221/6/6 237/6/6
f 222/5/6 223/5/6 237/5/6
f 223/6/6 224/6/6 238/6/6
f 237/5/6 223/5/6 238/5/6
f 226/6/6 227/6/6 239/6/6
f 227/6/6 228/6/6 239/6/6
f 228/6/6 229/6/6 239/6/6
f 231/6/6 232/6/6 239/6/6
f 230/6/6 231/6/6 239/6/6
f 235/6/6 236/6/6 239/6/6
f 232/6/6 233/6/6 239/6/6
f 234/6/6 235/6/6 239/6/6
f 229/6/6 230/6/6 239/6/6
f 225/6/6 226/6/6 239/6/6
f 233/6/6 234/6/6 239/6/6
f 236/5/6 237/5/6 240/5/6
f 239/6/6 236/6/6 240/6/6
f 237/6/6 238/6/6 241/6/6
f 240/5/6 237/5/6 241/5/6
f 225/6/6 239/6/6 242/6/6
f 239/5/6 240/5/6 243/5/6
f 242/6/6 239/6/6 243/6/6
f 240/6/6 241/6/6 244/6/6
f 243/5/6 240/5/6 244/5/6
f 225/6/6 242/6/6 245/6/6
f 242/4/6 243/4/6 245/4/6
f 243/6/6 244/6/6 246/6/6
f 245/4/6 243/4/6 246/4/6
f 176/6/6 225/6/6 247/6/6
f 51/6/6 81/6/6 247/6/6
f 245/6/6 246/6/6 247/6/6
f 225/6/6 245/6/6 247/6/6
f 81/6/6 144/6/6 247/6/6
f 144/6/6 176/6/6 247/6/6
f 238/6/6 224/6/6 248/6/6
f 247/6/6 246/6/6 248/6/6
f 244/6/6 241/6/6 248/6/6
f 241/6/6 238/6/6 248/6/6
f 175/6/6 26/6/6 248/6/6
f 246/6/6 244/6/6 248/6/6
f 201/6/6 175/6/6 248/6/6
f 224/6/6 201/6/6 248/6/6
